<?xml version="1.0" encoding="UTF-8"?>
<svg version="1.1" viewBox="0 0 1000 1000" xmlns="http://www.w3.org/2000/svg">
<g>
<svg width="1e3" height="1e3" data-background-color="#1ebbd7" viewBox="0 0 280 280" xmlns="http://www.w3.org/2000/svg" xmlns:xlink="http://www.w3.org/1999/xlink">
<g>
<svg width="280" height="280" viewBox="0 0 280 280">
<svg width="280" height="280" viewBox="0 0 280 280">
<svg width="280" height="280" viewBox="0 0 280 280">
<svg width="280" height="280" viewBox="0 0 280 280">
<svg width="280" height="280" viewBox="0 0 280 280">
<g transform="translate(128.67 107)">
<svg width="22.659" height="65.997" viewBox="0 0 22.658514928001157 65.99663291074444">
<svg class="icon-o-0" width="22.659" height="65.997" enable-background="new 0 0 90 90" data-fill-palette-color="accent" version="1.1" viewBox="30.051998138427734 1.462000846862793 29.89600372314453 87.0770034790039" xml:space="preserve" xmlns="http://www.w3.org/2000/svg" xmlns:xlink="http://www.w3.org/1999/xlink"><path d="m51.687 19.992h-3.957c3.742-1.288 6.436-4.832 6.436-9.011 0-5.14-4.069-9.318-9.159-9.519h-7e-3 -7e-3c-5.091 0.201-9.16 4.379-9.16 9.519 0 4.179 2.693 7.723 6.437 9.011h-3.956c-4.509 0-8.262 4.178-8.262 9.149v18.162c0 1.342 1.444 2.426 2.785 2.426s2.785-1.084 2.785-2.426v-18.162c0-1.345 0.311-2.333 0.929-2.93v59.902c0 1.34 1.445 2.426 2.785 2.426 1.341 0 2.785-1.086 2.785-2.426v-30.842h5.758v30.842c0 1.34 1.443 2.426 2.785 2.426 1.341 0 2.785-1.086 2.785-2.426v-59.902c0.617 0.597 0.929 1.585 0.929 2.93v18.162c0 1.342 1.444 2.426 2.785 2.426 1.34 0 2.785-1.084 2.785-2.426v-18.162c0-4.971-3.753-9.149-8.261-9.149zm-6.687 22.576-2.496-4.528 2.496-16.281 2.496 16.281-2.496 4.528z" fill="#00ffef" data-fill-palette-color="accent"/></svg>
</svg>
</g>
<g fill="#010c80">
<path d="m2.409 102.48-2.409-0.223 2.922-8.465c0.612-1.773 1.417-3.302 2.415-4.586 1.007-1.288 2.241-2.175 3.702-2.659 1.457-0.493 3.196-0.39 5.217 0.308 1.843 0.636 3.199 1.613 4.067 2.929 0.86 1.321 1.316 2.812 1.369 4.473 0.05 1.667-0.21 3.327-0.78 4.979l-1.03 2.984 10.724 3.702-1.727 5.004zm4.198-7.651-1.069 3.098 8.817 3.044 1.06-3.07c0.469-1.36 0.409-2.544-0.183-3.551-0.591-1.008-1.528-1.733-2.812-2.176-1.341-0.463-2.525-0.484-3.552-0.064-1.029 0.427-1.783 1.333-2.261 2.719z" data-fill-palette-color="primary"/>
<path d="m35.892 44.106-2.029-1.318 7.052-6.633c1.254-1.179 2.57-2.09 3.95-2.733 1.375-0.638 2.763-0.85 4.164-0.636s2.772 1.034 4.113 2.459c0.742 0.788 1.25 1.741 1.525 2.857 0.275 1.117 0.321 2.245 0.139 3.386s-0.568 2.168-1.157 3.082l15.464 3.825-4.385 4.125-14.317-3.797-1.542 1.451 8.616 9.159-3.856 3.628zm7.302-4.792-2.409 2.266 5.493 5.84 1.792-1.686c0.73-0.686 1.303-1.392 1.72-2.117 0.412-0.729 0.578-1.476 0.496-2.239-0.091-0.764-0.507-1.54-1.249-2.328-0.58-0.617-1.213-0.991-1.899-1.121s-1.37-0.068-2.053 0.187c-0.678 0.25-1.309 0.65-1.891 1.198z" data-fill-palette-color="primary"/>
<path d="m110.99 29.764c-2.088 0.547-4.029 0.671-5.824 0.37-1.796-0.301-3.407-0.948-4.836-1.943-1.428-0.995-2.647-2.277-3.657-3.848-1.009-1.57-1.771-3.337-2.286-5.301-0.522-1.99-0.726-3.91-0.614-5.761 0.113-1.85 0.555-3.555 1.329-5.112 0.773-1.558 1.87-2.902 3.29-4.032s3.174-1.969 5.262-2.516c2.14-0.561 4.117-0.707 5.931-0.439 1.808 0.27 3.431 0.894 4.87 1.872 1.438 0.978 2.668 2.251 3.69 3.817 1.022 1.567 1.801 3.371 2.337 5.413 0.529 2.016 0.72 3.953 0.575 5.813-0.152 1.861-0.627 3.573-1.426 5.138s-1.924 2.909-3.374 4.033c-1.443 1.122-3.199 1.954-5.267 2.496zm-0.782-3.579c1.444-0.378 2.567-1 3.369-1.863 0.796-0.862 1.348-1.872 1.656-3.03s0.426-2.377 0.354-3.659c-0.072-1.281-0.268-2.533-0.588-3.755-0.319-1.216-0.76-2.421-1.323-3.615-0.565-1.2-1.272-2.252-2.12-3.155-0.85-0.91-1.851-1.558-3.002-1.945-1.152-0.393-2.464-0.397-3.933-0.011-1.444 0.378-2.563 0.999-3.359 1.86-0.802 0.864-1.356 1.881-1.66 3.052-0.306 1.165-0.423 2.39-0.35 3.678 0.072 1.281 0.264 2.52 0.579 3.717 0.319 1.216 0.766 2.419 1.342 3.609 0.578 1.197 1.291 2.247 2.139 3.151 0.85 0.91 1.847 1.559 2.992 1.947 1.139 0.396 2.441 0.403 3.904 0.019z" data-fill-palette-color="primary"/>
<path d="m174.59 1.511 4.069 1.061 2.544 29.845-5.523-1.441-0.649-8.538-8.128-2.12-4.776 7.123-4.323-1.127zm0.166 16.947-0.397-10.066-5.234 8.598z" data-fill-palette-color="primary"/>
<path d="m220.06 57.869c-1.657-1.495-2.867-3.079-3.63-4.754-0.762-1.674-1.115-3.386-1.058-5.136s0.48-3.483 1.267-5.2c0.783-1.711 1.881-3.351 3.295-4.918 1.378-1.528 2.879-2.736 4.504-3.624 1.63-0.884 3.318-1.421 5.065-1.611 1.751-0.195 3.494-4e-3 5.228 0.573 1.729 0.572 3.377 1.566 4.945 2.98 0.689 0.621 1.393 1.387 2.111 2.297s1.346 1.875 1.884 2.895c0.538 1.019 0.858 2.01 0.96 2.97l-4.444 0.772c0.015-1.091-0.265-2.19-0.842-3.298-0.572-1.113-1.249-2.023-2.033-2.73-1.108-1-2.247-1.619-3.416-1.858-1.169-0.24-2.325-0.182-3.468 0.171-1.148 0.35-2.241 0.899-3.278 1.647-1.038 0.739-1.996 1.595-2.874 2.569-1.553 1.722-2.639 3.418-3.257 5.088-0.623 1.674-0.775 3.253-0.456 4.736 0.324 1.487 1.125 2.808 2.404 3.96 0.804 0.725 1.752 1.381 2.843 1.967 1.097 0.591 2.374 1.077 3.831 1.459l-0.736 3.18c-1.172-0.197-2.256-0.455-3.253-0.775-0.988-0.32-1.931-0.75-2.829-1.289-0.903-0.534-1.824-1.224-2.763-2.071z" data-fill-palette-color="primary"/>
<path d="m248.84 99.654 22.893-8.483-2.718-7.338 3.583-1.328 7.397 19.962-3.584 1.328-2.761-7.452-22.893 8.483z" data-fill-palette-color="primary"/>
<path d="m33.531 173.29 2.076-1.339 2.987 8.613c0.628 1.81 0.945 3.547 0.953 5.209 7e-3 1.663-0.42 3.149-1.283 4.459-0.86 1.316-2.319 2.331-4.377 3.044-1.88 0.652-3.582 0.719-5.107 0.202-1.522-0.511-2.829-1.417-3.92-2.718-1.092-1.301-1.929-2.793-2.513-4.476l-1.057-3.048-10.919 3.786-1.765-5.087zm1.464 8.778-1.097-3.163-8.994 3.12 1.084 3.125c0.48 1.385 1.276 2.294 2.387 2.726 1.104 0.435 2.314 0.425 3.629-0.031 1.366-0.474 2.326-1.202 2.882-2.184 0.562-0.985 0.599-2.182 0.109-3.593z" data-fill-palette-color="primary"/>
<path d="m58.387 218.34 1.217-2.15 7.188 6.753c1.284 1.206 2.294 2.487 3.03 3.844 0.737 1.356 1.04 2.757 0.909 4.202-0.126 1.44-0.873 2.888-2.24 4.343-0.755 0.804-1.693 1.38-2.814 1.729s-2.266 0.468-3.435 0.357c-1.174-0.116-2.242-0.446-3.205-0.992l-2.919 15.979-4.476-4.205 2.963-14.803-1.581-1.484-8.776 9.341-3.924-3.687zm5.344 7.124-2.469-2.32-5.6 5.961 1.837 1.726c0.745 0.7 1.499 1.237 2.262 1.613s1.533 0.494 2.309 0.356c0.771-0.133 1.534-0.602 2.289-1.405 0.594-0.632 0.937-1.302 1.029-2.009 0.083-0.706-0.025-1.398-0.322-2.073-0.297-0.676-0.742-1.292-1.335-1.849z" data-fill-palette-color="primary"/>
<path d="m105.9 276.26c-2.127-0.557-3.913-1.418-5.359-2.582-1.44-1.163-2.548-2.544-3.324-4.144-0.77-1.599-1.211-3.348-1.325-5.247s0.092-3.851 0.616-5.854c0.532-2.029 1.311-3.837 2.338-5.423s2.273-2.879 3.737-3.879c1.471-0.998 3.117-1.644 4.939-1.937 1.821-0.294 3.799-0.162 5.932 0.397 2.179 0.571 4.008 1.429 5.486 2.573 1.473 1.143 2.605 2.51 3.398 4.102 0.786 1.589 1.242 3.335 1.369 5.237 0.12 1.901-0.092 3.892-0.637 5.973-0.538 2.055-1.338 3.872-2.397 5.45-1.066 1.576-2.345 2.861-3.835 3.853-1.497 0.991-3.167 1.623-5.011 1.898-1.844 0.274-3.82 0.136-5.927-0.417zm1.104-3.578c1.47 0.385 2.773 0.397 3.911 0.034 1.139-0.369 2.135-0.987 2.988-1.854 0.848-0.876 1.562-1.902 2.141-3.078s1.032-2.388 1.359-3.636c0.325-1.242 0.535-2.532 0.628-3.87 0.095-1.344-5e-3 -2.632-0.301-3.863-0.302-1.233-0.868-2.309-1.698-3.228-0.829-0.919-1.992-1.575-3.488-1.967-1.47-0.385-2.773-0.397-3.91-0.034-1.139 0.369-2.137 0.993-2.993 1.874-0.858 0.887-1.576 1.919-2.156 3.094-0.579 1.176-1.029 2.375-1.349 3.598-0.325 1.242-0.528 2.534-0.609 3.875-0.082 1.348 0.028 2.638 0.331 3.87 0.302 1.233 0.862 2.307 1.678 3.224 0.816 0.916 1.973 1.57 3.468 1.961z" data-fill-palette-color="primary"/>
<path d="m165.04 248.53 4.147-1.081 17.105 25.284-5.631 1.468-4.815-7.28-8.295 2.162-0.698 8.717-4.41 1.149zm8.576 14.991-5.369-8.761-0.379 10.259z" data-fill-palette-color="primary"/>
<path d="m233.58 243.74c-1.699 1.529-3.435 2.59-5.209 3.182-1.773 0.592-3.546 0.768-5.319 0.527-1.767-0.245-3.48-0.857-5.137-1.834-1.658-0.977-3.204-2.263-4.639-3.857-1.403-1.559-2.468-3.215-3.194-4.967-0.727-1.742-1.093-3.511-1.099-5.306-6e-3 -1.785 0.374-3.524 1.138-5.217 0.766-1.702 1.945-3.27 3.54-4.705 0.705-0.634 1.557-1.265 2.556-1.894 1-0.638 2.045-1.175 3.134-1.613 1.089-0.428 2.126-0.647 3.112-0.657l0.316 4.587c-1.107-0.134-2.253 0.034-3.44 0.504-1.181 0.466-2.172 1.059-2.971 1.779-1.129 1.016-1.879 2.103-2.25 3.259-0.366 1.161-0.433 2.343-0.201 3.545 0.237 1.198 0.678 2.361 1.323 3.49s1.415 2.19 2.31 3.185c1.579 1.754 3.18 3.035 4.804 3.845 1.633 0.81 3.218 1.129 4.755 0.957 1.542-0.166 2.965-0.837 4.269-2.01 0.82-0.738 1.585-1.63 2.297-2.679 0.717-1.052 1.344-2.295 1.881-3.728l3.143 1.079c-0.319 1.173-0.694 2.244-1.126 3.212-0.432 0.967-0.965 1.882-1.601 2.743-0.64 0.857-1.437 1.714-2.392 2.573z" data-fill-palette-color="primary"/>
<path d="m266.87 193.84-23.321-8.692-2.786 7.475-3.647-1.36 7.578-20.335 3.648 1.359-2.828 7.588 23.321 8.692z" data-fill-palette-color="primary"/>
<path d="m1.837 143.25c0-6.072 4.922-10.994 10.994-10.994s10.994 4.922 10.995 10.994c0 6.072-4.922 10.994-10.995 10.994-6.072 0-10.994-4.922-10.994-10.994z" data-fill-palette-color="primary"/>
<path d="m255.97 143.25c0-6.072 4.922-10.994 10.994-10.994s10.994 4.922 10.994 10.994-4.922 10.994-10.994 10.994-10.994-4.922-10.994-10.994z" data-fill-palette-color="primary"/>
</g>
</svg>
</svg>
</svg>
</svg>
</svg>
<rect width="280" height="280" fill="none" visibility="hidden"/>
</g>
</svg>
</g>
</svg>
